{
  "accessors": [
    {
      "bufferView": 2,
      "componentType": 5126,
      "count": 274,
      "max": [
        51.481777191162109,
        196.45661926269531,
        -104.07634735107422
      ],
      "min": [
        6.6028151512145996,
        176.45661926269531,
        -148.50473022460938
      ],
      "type": "VEC3"
    },
    {
      "bufferView": 2,
      "byteOffset": 3288,
      "componentType": 5126,
      "count": 274,
      "max": [
        1,
        1,
        1
      ],
      "min": [
        -1,
        -1,
        -1
      ],
      "type": "VEC3"
    },
    {
      "bufferView": 3,
      "componentType": 5126,
      "count": 274,
      "max": [
        1,
        0,
        1,
        1
      ],
      "min": [
        -1,
        0,
        -1,
        -1
      ],
      "type": "VEC4"
    },
    {
      "bufferView": 1,
      "componentType": 5126,
      "count": 274,
      "max": [
        1,
        1
      ],
      "min": [
        0,
        0
      ],
      "type": "VEC2"
    },
    {
      "bufferView": 0,
      "componentType": 5125,
      "count": 804,
      "max": [
        273
      ],
      "min": [
        0
      ],
      "type": "SCALAR"
    },
    {
      "bufferView": 2,
      "byteOffset": 6576,
      "componentType": 5126,
      "count": 274,
      "max": [
        51.481777191162109,
        196.45661926269531,
        -53.03607177734375
      ],
      "min": [
        6.6028151512145996,
        176.45661926269531,
        -97.464515686035156
      ],
      "type": "VEC3"
    },
    {
      "bufferView": 2,
      "byteOffset": 9864,
      "componentType": 5126,
      "count": 274,
      "max": [
        1,
        1,
        1
      ],
      "min": [
        -1,
        -1,
        -1
      ],
      "type": "VEC3"
    },
    {
      "bufferView": 3,
      "byteOffset": 4384,
      "componentType": 5126,
      "count": 274,
      "max": [
        1,
        0,
        1,
        1
      ],
      "min": [
        -1,
        0,
        -1,
        -1
      ],
      "type": "VEC4"
    },
    {
      "bufferView": 1,
      "byteOffset": 2192,
      "componentType": 5126,
      "count": 274,
      "max": [
        1,
        1
      ],
      "min": [
        0,
        0
      ],
      "type": "VEC2"
    },
    {
      "bufferView": 0,
      "byteOffset": 3216,
      "componentType": 5125,
      "count": 804,
      "max": [
        273
      ],
      "min": [
        0
      ],
      "type": "SCALAR"
    },
    {
      "bufferView": 2,
      "byteOffset": 13152,
      "componentType": 5126,
      "count": 274,
      "max": [
        -0.1568310409784317,
        196.45661926269531,
        -53.03607177734375
      ],
      "min": [
        -45.035793304443359,
        176.45661926269531,
        -97.464515686035156
      ],
      "type": "VEC3"
    },
    {
      "bufferView": 2,
      "byteOffset": 16440,
      "componentType": 5126,
      "count": 274,
      "max": [
        1,
        1,
        1
      ],
      "min": [
        -1,
        -1,
        -1
      ],
      "type": "VEC3"
    },
    {
      "bufferView": 3,
      "byteOffset": 8768,
      "componentType": 5126,
      "count": 274,
      "max": [
        1,
        0,
        1,
        1
      ],
      "min": [
        -1,
        0,
        -1,
        -1
      ],
      "type": "VEC4"
    },
    {
      "bufferView": 1,
      "byteOffset": 4384,
      "componentType": 5126,
      "count": 274,
      "max": [
        1,
        1
      ],
      "min": [
        0,
        0
      ],
      "type": "VEC2"
    },
    {
      "bufferView": 0,
      "byteOffset": 6432,
      "componentType": 5125,
      "count": 804,
      "max": [
        273
      ],
      "min": [
        0
      ],
      "type": "SCALAR"
    },
    {
      "bufferView": 2,
      "byteOffset": 19728,
      "componentType": 5126,
      "count": 758,
      "max": [
        -69.550216674804688,
        196.45661926269531,
        -52.783340454101562
      ],
      "min": [
        -225.7059326171875,
        176.45661926269531,
        -155.7257080078125
      ],
      "type": "VEC3"
    },
    {
      "bufferView": 2,
      "byteOffset": 28824,
      "componentType": 5126,
      "count": 758,
      "max": [
        1,
        1,
        1
      ],
      "min": [
        -1,
        -1,
        -1
      ],
      "type": "VEC3"
    },
    {
      "bufferView": 3,
      "byteOffset": 13152,
      "componentType": 5126,
      "count": 758,
      "max": [
        1,
        0,
        1,
        1
      ],
      "min": [
        -1,
        0,
        -1,
        -1
      ],
      "type": "VEC4"
    },
    {
      "bufferView": 1,
      "byteOffset": 6576,
      "componentType": 5126,
      "count": 758,
      "max": [
        1,
        1
      ],
      "min": [
        0,
        0
      ],
      "type": "VEC2"
    },
    {
      "bufferView": 0,
      "byteOffset": 9648,
      "componentType": 5125,
      "count": 2118,
      "max": [
        757
      ],
      "min": [
        0
      ],
      "type": "SCALAR"
    }
  ],
  "asset": {
    "extras": {
      "author": "filipereira (https://sketchfab.com/filipereira)",
      "license": "CC-BY-4.0 (http://creativecommons.org/licenses/by/4.0/)",
      "source": "https://sketchfab.com/3d-models/wtftel3c4d-1e42b912b985421ab2fa3f7d6cbaa5ec",
      "title": "WTFTEL3.c4d"
    },
    "generator": "Sketchfab-6.9.0",
    "version": "2.0"
  },
  "bufferViews": [
    {
      "buffer": 0,
      "byteLength": 18120,
      "byteOffset": 0,
      "name": "floatBufferViews",
      "target": 34963
    },
    {
      "buffer": 0,
      "byteLength": 12640,
      "byteOffset": 18120,
      "byteStride": 8,
      "name": "floatBufferViews",
      "target": 34962
    },
    {
      "buffer": 0,
      "byteLength": 37920,
      "byteOffset": 30760,
      "byteStride": 12,
      "name": "floatBufferViews",
      "target": 34962
    },
    {
      "buffer": 0,
      "byteLength": 25280,
      "byteOffset": 68680,
      "byteStride": 16,
      "name": "floatBufferViews",
      "target": 34962
    }
  ],
  "buffers": [
    {
      "byteLength": 93960,
      "uri": "tel.bin"
    }
  ],
  "materials": [
    {
      "doubleSided": true,
      "emissiveFactor": [
        0,
        0,
        0
      ],
      "name": "ORANGE_Light",
      "pbrMetallicRoughness": {
        "baseColorFactor": [
          1,
          0.74666699999999986,
          0.049999999999999989,
          1
        ],
        "metallicFactor": 0,
        "roughnessFactor": 0.93211774900609146
      }
    },
    {
      "doubleSided": true,
      "name": "ORANGE_Light_2",
      "pbrMetallicRoughness": {
        "baseColorFactor": [
          1,
          0.27119792872178367,
          0,
          1
        ],
        "metallicFactor": 0,
        "roughnessFactor": 0.93211774900609146
      }
    },
    {
      "doubleSided": true,
      "name": "BLUEE_Light",
      "pbrMetallicRoughness": {
        "baseColorFactor": [
          0.043000000000000017,
          0.65575000000000061,
          0.85999999999999999,
          1
        ],
        "metallicFactor": 0,
        "roughnessFactor": 0.93211774900609146
      }
    },
    {
      "doubleSided": true,
      "name": "LED_COLOR",
      "pbrMetallicRoughness": {
        "baseColorFactor": [
          0.89280000000000004,
          0.92069999999999996,
          0.93000000000000005,
          1
        ],
        "metallicFactor": 0,
        "roughnessFactor": 0.59999999999999998
      }
    }
  ],
  "meshes": [
    {
      "name": "Extrude_1_ORANGE Light_0",
      "primitives": [
        {
          "attributes": {
            "NORMAL": 1,
            "POSITION": 0,
            "TANGENT": 2,
            "TEXCOORD_0": 3
          },
          "indices": 4,
          "material": 0,
          "mode": 4
        }
      ]
    },
    {
      "name": "Extrude_1_ORANGE Light_2_0",
      "primitives": [
        {
          "attributes": {
            "NORMAL": 6,
            "POSITION": 5,
            "TANGENT": 7,
            "TEXCOORD_0": 8
          },
          "indices": 9,
          "material": 1,
          "mode": 4
        }
      ]
    },
    {
      "name": "Extrude_1_BLUEE Light_0",
      "primitives": [
        {
          "attributes": {
            "NORMAL": 11,
            "POSITION": 10,
            "TANGENT": 12,
            "TEXCOORD_0": 13
          },
          "indices": 14,
          "material": 2,
          "mode": 4
        }
      ]
    },
    {
      "name": "Extrude_1_LED COLOR_0",
      "primitives": [
        {
          "attributes": {
            "NORMAL": 16,
            "POSITION": 15,
            "TANGENT": 17,
            "TEXCOORD_0": 18
          },
          "indices": 19,
          "material": 3,
          "mode": 4
        }
      ]
    }
  ],
  "nodes": [
    {
      "children": [
        1
      ],
      "name": "RootNode (gltf orientation matrix)",
      "rotation": [
        -0.70710678118654746,
        -0,
        -0,
        0.70710678118654757
      ]
    },
    {
      "children": [
        2
      ],
      "name": "RootNode (model correction matrix)"
    },
    {
      "children": [
        3
      ],
      "matrix": [
        1,
        0,
        0,
        0,
        0,
        0,
        1,
        0,
        0,
        -1,
        0,
        0,
        0,
        0,
        0,
        1
      ],
      "name": "WTFTEL3.c4d.fbx"
    },
    {
      "children": [
        4
      ],
      "name": "RootNode"
    },
    {
      "children": [
        5,
        6,
        7,
        8
      ],
      "matrix": [
        1,
        0,
        0,
        0,
        0,
        1,
        0,
        0,
        0,
        0,
        1,
        0,
        120.9754638671875,
        -167.44219970703125,
        83.667816162109375,
        1
      ],
      "name": "Extrude_1"
    },
    {
      "mesh": 0,
      "name": "Extrude_1_ORANGE Light_0"
    },
    {
      "mesh": 1,
      "name": "Extrude_1_ORANGE Light_2_0"
    },
    {
      "mesh": 2,
      "name": "Extrude_1_BLUEE Light_0"
    },
    {
      "mesh": 3,
      "name": "Extrude_1_LED COLOR_0"
    }
  ],
  "scene": 0,
  "scenes": [
    {
      "name": "OSG_Scene",
      "nodes": [
        0
      ]
    }
  ]
}

